{"title":"101.Ways.to.Leave.a.Game.Show.US.S01E03.720p.HDTV.x264-MOMENTUM","uid":12102957,"size":1388015628,"categoryP":"video","categoryS":"hd___tv_shows","magnet":"?xt=urn:btih:f4e118b4d7ed9f14d951098ad03a52bbc4bccfde&amp;dn=101.Ways.to.Leave.a.Game.Show.US.S01E03.720p.HDTV.x264-MOMENTUM&amp;tr=udp%3A%2F%2Ftracker.openbittorrent.com%3A80&amp;tr=udp%3A%2F%2Fopen.demonii.com%3A1337&amp;tr=udp%3A%2F%2Ftracker.coppersurfer.tk%3A6969&amp;tr=udp%3A%2F%2Fexodus.desync.com%3A6969","seeders":0,"leechers":0,"uploader":"orangebirds","files":2,"time":1436373350,"description":"101.Ways.to.Leave.a.Game.Show.US.S01E03.720p.HDTV.x264-MOMENTUM\n\nAudio in AC3 5.1\n\nPlease help me seed, and don't forget to leave a comment!\n\nGeneral\nUnique ID                                : 198695859312397750754484918404991991513 (0x957B6E370DB361368D0593D5C4E0BED9)\nComplete name                            : 101.ways.to.leave.a.game.show.us.s01e03.720p.hdtv.x264-momentum.mkv\nFormat                                   : Matroska\nFormat version                           : Version 2\nFile size                                : 1.29 GiB\nDuration                                 : 42mn 19s\nOverall bit rate                         : 4 372 Kbps\nEncoded date                             : UTC 2011-07-06 08:10:46\nWriting application                      : mkvmerge v4.0.0 ('The Stars were mine') built on Jun  5 2010 14:31:43\nWriting library                          : libebml v1.0.0 + libmatroska v1.0.0\n\nVideo\nID                                       : 1\nFormat                                   : AVC\nFormat/Info                              : Advanced Video Codec\nFormat profile                           : &lt;a class=&quot;__cf_email__&quot; href=&quot;/cdn-cgi/l/email-protection&quot; data-cfemail=&quot;bef6d7d9d6fef28d908f&quot;&gt;[email&amp;#160;protected]&lt;/a&gt;&lt;script data-cfhash='f9e31' type=&quot;text/javascript&quot;&gt;\n/* &lt;![CDATA[ */!function(){try{var t=&quot;currentScript&quot;in document?document.currentScript:function(){for(var t=document.getElementsByTagName(&quot;script&quot;),e=t.length;e--;)if(t[e].getAttribute(&quot;data-cfhash&quot;))return t[e]}();if(t&amp;&amp;t.previousSibling){var e,r,n,i,c=t.previousSibling,a=c.getAttribute(&quot;data-cfemail&quot;);if(a){for(e=&quot;&quot;,r=parseInt(a.substr(0,2),16),n=2;a.length-n;n+=2)i=parseInt(a.substr(n,2),16)^r,e+=String.fromCharCode(i);e=document.createTextNode(e),c.parentNode.replaceChild(e,c)}t.parentNode.removeChild(t);}}catch(u){}}()/* ]]&gt; */&lt;/script&gt;\nFormat settings, CABAC                   : Yes\nFormat settings, ReFrames                : 5 frames\nCodec ID                                 : V_MPEG4/ISO/AVC\nDuration                                 : 42mn 19s\nBit rate                                 : 3 901 Kbps\nWidth                                    : 1 280 pixels\nHeight                                   : 720 pixels\nDisplay aspect ratio                     : 16:9\nFrame rate mode                          : Constant\nFrame rate                               : 29.970 fps\nColor space                              : YUV\nChroma subsampling                       : 4:2:0\nBit depth                                : 8 bits\nScan type                                : Progressive\nBits/(Pixel*Frame)                       : 0.141\nStream size                              : 1.15 GiB (89%)\nWriting library                          : x264 core 115 r2008 4c552d8\nEncoding settings                        : cabac=1 / ref=5 / deblock=1:0:0 / analyse=0x3:0x113 / me=umh / subme=8 / psy=1 / psy_rd=1.00:0.00 / mixed_ref=1 / me_range=16 / chroma_me=1 / trellis=1 / 8x8dct=1 / cqm=0 / deadzone=21,11 / fast_pskip=1 / chroma_qp_offset=-2 / threads=12 / sliced_threads=0 / nr=0 / decimate=1 / interlaced=0 / bluray_compat=0 / constrained_intra=0 / bframes=3 / b_pyramid=2 / b_adapt=2 / b_bias=0 / direct=3 / weightb=1 / open_gop=0 / weightp=2 / keyint=250 / keyint_min=25 / scenecut=40 / intra_refresh=0 / rc_lookahead=50 / rc=crf / mbtree=1 / crf=20.0 / qcomp=0.60 / qpmin=0 / qpmax=69 / qpstep=4 / ip_ratio=1.40 / aq=1:1.00\nLanguage                                 : English\nDefault                                  : No\nForced                                   : No\n\nAudio\nID                                       : 2\nFormat                                   : AC-3\nFormat/Info                              : Audio Coding 3\nMode extension                           : CM (complete main)\nFormat settings, Endianness              : Big\nCodec ID                                 : A_AC3\nDuration                                 : 42mn 19s\nBit rate mode                            : Constant\nBit rate                                 : 384 Kbps\nChannel(s)                               : 6 channels\nChannel positions                        : Front: L C R, Side: L R, LFE\nSampling rate                            : 48.0 KHz\nBit depth                                : 16 bits\nCompression mode                         : Lossy\nStream size                              : 116 MiB (9%)\nDefault                                  : Yes\nForced                                   : No","torrent":{"xt":"urn:btih:f4e118b4d7ed9f14d951098ad03a52bbc4bccfde","amp;dn":"101.Ways.to.Leave.a.Game.Show.US.S01E03.720p.HDTV.x264-MOMENTUM","amp;tr":["udp%3A%2F%2Ftracker.openbittorrent.com%3A80","udp%3A%2F%2Fopen.demonii.com%3A1337","udp%3A%2F%2Ftracker.coppersurfer.tk%3A6969","udp%3A%2F%2Fexodus.desync.com%3A6969"],"infoHash":"f4e118b4d7ed9f14d951098ad03a52bbc4bccfde","infoHashBuffer":{"type":"Buffer","data":[244,225,24,180,215,237,159,20,217,81,9,138,208,58,82,187,196,188,207,222]},"announce":[],"urlList":[]}}